<?xml version="1.0" encoding="UTF-8"?>
<svg width="400" height="400" viewBox="0 0 400 400" fill="none" xmlns="http://www.w3.org/2000/svg">
  <circle cx="200" cy="200" r="180" fill="#8B5CF6" fill-opacity="0.2"/>
  <circle cx="200" cy="200" r="120" fill="#8B5CF6" fill-opacity="0.3"/>
  <path d="M200 120C155.817 120 120 155.817 120 200C120 244.183 155.817 280 200 280C244.183 280 280 244.183 280 200C280 155.817 244.183 120 200 120ZM200 260C166.863 260 140 233.137 140 200C140 166.863 166.863 140 200 140C233.137 140 260 166.863 260 200C260 233.137 233.137 260 200 260Z" fill="#8B5CF6"/>
</svg> 