<?xml version="1.0" encoding="UTF-8"?>
<svg width="400" height="400" viewBox="0 0 400 400" fill="none" xmlns="http://www.w3.org/2000/svg">
  <circle cx="200" cy="200" r="150" fill="#8B5CF6" fill-opacity="0.2"/>
  <path d="M200 100C144.772 100 100 144.772 100 200C100 255.228 144.772 300 200 300C255.228 300 300 255.228 300 200C300 144.772 255.228 100 200 100ZM200 280C155.817 280 120 244.183 120 200C120 155.817 155.817 120 200 120C244.183 120 280 155.817 280 200C280 244.183 244.183 280 200 280Z" fill="#8B5CF6"/>
  <circle cx="200" cy="200" r="40" fill="#8B5CF6"/>
  <path d="M260 200C260 213.261 254.732 225.979 245.355 235.355C235.979 244.732 223.261 250 210 250" stroke="#8B5CF6" stroke-width="4" stroke-linecap="round"/>
</svg> 